# xmcd
#
# Track frame offsets: 
#        150
#        9563
#        20518
#        35946
#        51385
#        67303
#        83214
#        97466
#        111665
#        122520
#        131997
#        149089
#        168840
#        184787
#        200721
#        215520
#        230459
#        243761
#        257048
#        273543
#
# Disc length: 3865 seconds
#
# Revision: 0
# Processed by: cddbd v1.5.2PL0 Copyright (c) Steve Scherf et al.
# Submitted via: ExactAudioCopy v0.95b3
#
DISCID=450f1714
DTITLE=David Smith - 1950's In Sequence
DYEAR=2006
DGENRE=Sequence Dance
TTITLE0=It's All Right With Me - Mr. Sandman
TTITLE1=Sugartime - Get Me To Church On Time
TTITLE2=The Song From Moulin Rouge - Answer Me
TTITLE3=The Story Of Tina - Tammy
TTITLE4=I Wanna Be Around - Just In Time
TTITLE5=When I Fall In Love - Hold Me, Thrill Me
TTITLE6=From A Jack To A King - Smile
TTITLE7=Till - Tonight
TTITLE8=Rock Around The Clock - Shake Rattle 'N' Roll
TTITLE9=I Love Paris - Poppa Piccolino
TTITLE10=All The Way - Here In My Heart
TTITLE11=The Book - Dream Lover
TTITLE12=Just Walking In The Rain - High Hopes
TTITLE13=The Black Hills Of Dakota - A Wand'rin Star
TTITLE14=Cherry Pink and Apple Blossom White - Love And Marriage
TTITLE15=Out Of Town - Little White Bull
TTITLE16=See You Later Alligator - Reet Petit
TTITLE17=Diana - Lipstick On Your Collar
TTITLE18=Love Is A Many Splendour - Teenager In Love
TTITLE19=He's A Tramp - Mr. Wonderful
EXTD=
EXTT0=
EXTT1=
EXTT2=
EXTT3=
EXTT4=
EXTT5=
EXTT6=
EXTT7=
EXTT8=
EXTT9=
EXTT10=
EXTT11=
EXTT12=
EXTT13=
EXTT14=
EXTT15=
EXTT16=
EXTT17=
EXTT18=
EXTT19=
PLAYORDER=
